<svg id="Layer_1" enable-background="new 0 0 512 512" height="512" viewBox="0 0 512 512" width="512" xmlns="http://www.w3.org/2000/svg"><g><path d="m432.734 271h-353.467c-6.697 0-12.583-4.439-14.423-10.879l-32.133-112.467c-1.293-4.526-.387-9.396 2.448-13.154 2.834-3.757 7.268-5.967 11.975-5.967h417.733c4.707 0 9.141 2.209 11.976 5.967 2.834 3.758 3.74 8.628 2.447 13.154l-32.133 112.467c-1.84 6.44-7.726 10.879-14.423 10.879z" fill="#bc8f57"/><path d="m447.156 260.121 32.133-112.467c1.293-4.525.387-9.396-2.447-13.154-2.835-3.757-7.269-5.967-11.976-5.967h-208.866v142.467h176.733c6.698 0 12.584-4.439 14.423-10.879z" fill="#9b6e37"/><path d="m352.401 512h-192.801c-8.284 0-15-6.716-15-15v-289.2c0-8.284 6.716-15 15-15h192.8c8.284 0 15 6.716 15 15v289.2c.001 8.284-6.715 15-14.999 15z" fill="#deb176"/><path d="m367.401 497v-289.2c0-8.284-6.716-15-15-15h-96.401v319.2h96.4c8.285 0 15.001-6.716 15.001-15z" fill="#bc8f57"/><path d="m384.533 158.533c-8.284 0-15-6.716-15-15v-48.2c0-18.307-14.894-33.2-33.2-33.2-8.284 0-15-6.716-15-15s6.716-15 15-15c34.849 0 63.2 28.352 63.2 63.2v48.2c0 8.284-6.715 15-15 15z"/><path d="m304.2 94.267c-25.989 0-47.134-21.144-47.134-47.133s21.145-47.134 47.134-47.134 47.133 21.144 47.133 47.133-21.143 47.134-47.133 47.134z" fill="#464646"/><path d="m464.866 128.533h-417.732c-8.284 0-15 6.716-15 15s6.716 15 15 15h417.733c8.284 0 15-6.716 15-15s-6.716-15-15.001-15z" fill="#ffd296"/><path d="m479.866 143.533c0-8.284-6.716-15-15-15h-208.866v30h208.866c8.285 0 15-6.715 15-15z" fill="#deb176"/><path d="m400.6 512h-289.2c-8.284 0-15-6.716-15-15s6.716-15 15-15h289.2c8.284 0 15 6.716 15 15s-6.716 15-15 15z" fill="#bc8f57"/><path d="m415.6 497c0-8.284-6.716-15-15-15h-144.6v30h144.6c8.284 0 15-6.716 15-15z" fill="#9b6e37"/><path d="m304.2 94.267v-94.267c25.989 0 47.133 21.144 47.133 47.133s-21.143 47.134-47.133 47.134z" fill="#282828"/></g></svg>