<svg id="Layer_2" enable-background="new 0 0 64 64" height="512" viewBox="0 0 64 64" width="512" xmlns="http://www.w3.org/2000/svg"><path d="m36.299 7.436c0 2.374-1.924 4.299-4.299 4.299-2.373 0-4.297-1.925-4.297-4.299 0-2.373 1.924-4.298 4.297-4.298 2.375 0 4.299 1.925 4.299 4.298z" fill="#f9dd9d"/><path d="m29.703 7.436c0-2.027 1.408-3.717 3.297-4.169-.322-.077-.654-.129-1-.129-2.373 0-4.297 1.925-4.297 4.298 0 2.374 1.924 4.299 4.297 4.299.346 0 .678-.053 1-.129-1.889-.453-3.297-2.142-3.297-4.17z" fill="#ffeecf"/><path d="m36.299 56.564c0 2.374-1.924 4.298-4.299 4.298-2.373 0-4.297-1.924-4.297-4.298s1.924-4.298 4.297-4.298c2.375 0 4.299 1.924 4.299 4.298z" fill="#f9dd9d"/><path d="m29.703 56.564c0-2.028 1.408-3.718 3.297-4.169-.322-.078-.654-.129-1-.129-2.373 0-4.297 1.924-4.297 4.298s1.924 4.298 4.297 4.298c.346 0 .678-.052 1-.129-1.889-.452-3.297-2.141-3.297-4.169z" fill="#ffeecf"/><path d="m56.564 36.297c-2.375 0-4.299-1.924-4.299-4.297 0-2.375 1.924-4.299 4.299-4.299 2.373 0 4.297 1.924 4.297 4.299 0 2.374-1.924 4.297-4.297 4.297z" fill="#f9dd9d"/><path d="m7.435 36.297c-2.373 0-4.297-1.924-4.297-4.297 0-2.375 1.924-4.299 4.297-4.299 2.375 0 4.299 1.924 4.299 4.299 0 2.374-1.924 4.297-4.299 4.297z" fill="#f9dd9d"/><path d="m5.139 32c0-2.029 1.408-3.717 3.297-4.17-.322-.076-.652-.129-1-.129-2.373 0-4.297 1.924-4.297 4.299 0 2.373 1.924 4.297 4.297 4.297.348 0 .678-.051 1-.129-1.889-.451-3.297-2.14-3.297-4.168z" fill="#ffeecf"/><path d="m52.408 17.67c-1.678 1.678-4.398 1.678-6.078 0-1.678-1.678-1.678-4.4 0-6.078 1.68-1.678 4.4-1.68 6.078 0 1.68 1.678 1.68 4.399 0 6.078z" fill="#f9dd9d"/><path d="m47.072 14.631c0-2.028 1.408-3.717 3.297-4.17-.322-.076-.654-.129-1-.129-2.373 0-4.297 1.925-4.297 4.299 0 2.373 1.924 4.298 4.297 4.298.346 0 .678-.052 1-.129-1.889-.452-3.297-2.141-3.297-4.169z" fill="#ffeecf"/><path d="m54.266 31.958c0-2.029 1.408-3.718 3.299-4.17-.322-.077-.654-.129-1-.129-2.375 0-4.299 1.924-4.299 4.299 0 2.373 1.924 4.297 4.299 4.297.346 0 .678-.051 1-.129-1.891-.452-3.299-2.141-3.299-4.168z" fill="#ffeecf"/><path d="m17.67 52.409c-1.678 1.678-4.398 1.678-6.078 0-1.678-1.678-1.678-4.4 0-6.078 1.68-1.678 4.4-1.678 6.078 0 1.68 1.677 1.68 4.398 0 6.078z" fill="#f9dd9d"/><path d="m13.592 52.409c-1.678-1.678-1.678-4.4 0-6.078.584-.582 1.293-.949 2.039-1.127-1.404-.336-2.941.031-4.039 1.127-1.678 1.678-1.678 4.4 0 6.078 1.096 1.096 2.635 1.462 4.039 1.127-.746-.179-1.457-.545-2.039-1.127z" fill="#ffeecf"/><path d="m46.33 52.409c-1.678-1.678-1.678-4.4 0-6.078 1.68-1.68 4.4-1.678 6.078 0 1.68 1.678 1.68 4.4 0 6.078-1.678 1.679-4.398 1.677-6.078 0z" fill="#f9dd9d"/><path d="m47.072 49.37c0-2.028 1.408-3.717 3.297-4.17-.322-.076-.654-.129-1-.129-2.373 0-4.297 1.925-4.297 4.299 0 2.373 1.924 4.298 4.297 4.298.346 0 .678-.052 1-.129-1.889-.453-3.297-2.142-3.297-4.169z" fill="#ffeecf"/><path d="m11.592 17.67c-1.678-1.678-1.678-4.4 0-6.078 1.68-1.68 4.4-1.678 6.078 0 1.68 1.678 1.68 4.4 0 6.078-1.678 1.68-4.399 1.678-6.078 0z" fill="#f9dd9d"/><path d="m13.592 17.67c-1.678-1.678-1.678-4.4 0-6.078.582-.582 1.293-.949 2.039-1.127-1.404-.336-2.943.03-4.039 1.127-1.678 1.678-1.678 4.4 0 6.078 1.098 1.096 2.635 1.463 4.039 1.127-.746-.177-1.457-.545-2.039-1.127z" fill="#ffeecf"/><g fill="#63312d"><path d="m32 12.235c-2.645 0-4.797-2.153-4.797-4.799s2.152-4.798 4.797-4.798c2.646 0 4.799 2.152 4.799 4.798s-2.153 4.799-4.799 4.799zm0-8.597c-2.094 0-3.797 1.704-3.797 3.798 0 2.095 1.703 3.799 3.797 3.799 2.095 0 3.799-1.704 3.799-3.799 0-2.094-1.704-3.798-3.799-3.798z"/><path d="m32 61.362c-2.645 0-4.797-2.152-4.797-4.798s2.152-4.798 4.797-4.798c2.646 0 4.799 2.152 4.799 4.798s-2.153 4.798-4.799 4.798zm0-8.596c-2.094 0-3.797 1.704-3.797 3.798s1.703 3.798 3.797 3.798c2.095 0 3.799-1.704 3.799-3.798s-1.704-3.798-3.799-3.798z"/><path d="m56.564 36.797c-2.646 0-4.799-2.152-4.799-4.797 0-2.646 2.152-4.799 4.799-4.799 2.645 0 4.797 2.153 4.797 4.799s-2.152 4.797-4.797 4.797zm0-8.595c-2.095 0-3.799 1.704-3.799 3.799 0 2.094 1.704 3.797 3.799 3.797 2.094 0 3.797-1.703 3.797-3.797 0-2.095-1.703-3.799-3.797-3.799z"/><path d="m7.436 36.797c-2.645 0-4.797-2.152-4.797-4.797 0-2.646 2.152-4.799 4.797-4.799 2.646 0 4.799 2.153 4.799 4.799-.001 2.646-2.153 4.797-4.799 4.797zm0-8.595c-2.094 0-3.797 1.704-3.797 3.799 0 2.094 1.703 3.797 3.797 3.797 2.095 0 3.799-1.703 3.799-3.797-.001-2.095-1.705-3.799-3.799-3.799z"/><path d="m49.37 19.426c-1.229 0-2.458-.467-3.394-1.402-1.871-1.871-1.871-4.915 0-6.786.907-.906 2.112-1.405 3.394-1.406h.001c1.281 0 2.485.5 3.391 1.406.907.906 1.406 2.11 1.406 3.392s-.499 2.487-1.406 3.394c-.935.935-2.163 1.402-3.392 1.402zm.001-8.593c-.001 0-.001 0 0 0-1.016 0-1.97.396-2.688 1.113-1.48 1.481-1.48 3.89 0 5.371 1.482 1.479 3.891 1.479 5.371 0 .718-.718 1.113-1.672 1.113-2.687 0-1.014-.396-1.967-1.113-2.685-.716-.716-1.669-1.112-2.683-1.112z"/><path d="m14.632 54.165c-1.229 0-2.458-.467-3.394-1.402-1.871-1.871-1.871-4.915 0-6.785 1.871-1.869 4.916-1.87 6.785 0 .907.906 1.406 2.11 1.406 3.392 0 1.281-.499 2.486-1.406 3.393-.934.934-2.163 1.402-3.391 1.402zm0-8.591c-.973 0-1.945.37-2.687 1.11-1.48 1.48-1.48 3.89 0 5.371 1.482 1.479 3.891 1.479 5.371 0 .718-.718 1.113-1.672 1.113-2.686 0-1.015-.396-1.968-1.113-2.685-.74-.74-1.712-1.11-2.684-1.11z"/><path d="m49.371 54.168c-.001 0-.001 0 0 0-1.282 0-2.487-.5-3.395-1.406-1.871-1.871-1.871-4.915 0-6.785 1.871-1.871 4.914-1.871 6.785 0 .907.906 1.406 2.11 1.406 3.393s-.499 2.487-1.406 3.393c-.905.905-2.109 1.405-3.39 1.405zm-2.687-2.113c.718.718 1.672 1.113 2.687 1.113h.001c1.014 0 1.967-.395 2.684-1.113.718-.717 1.113-1.671 1.113-2.686s-.396-1.968-1.113-2.685c-1.48-1.481-3.891-1.481-5.371 0-1.482 1.481-1.482 3.89-.001 5.371z"/><path d="m14.633 19.43c-.001 0-.001 0 0 0-1.282 0-2.487-.5-3.395-1.406-1.871-1.871-1.871-4.915 0-6.785 1.871-1.871 4.914-1.871 6.785 0 .907.906 1.406 2.11 1.406 3.393s-.499 2.487-1.406 3.393c-.905.905-2.109 1.405-3.39 1.405zm-2.688-2.114c.718.718 1.672 1.113 2.687 1.113h.001c1.014 0 1.967-.395 2.684-1.113.718-.717 1.113-1.671 1.113-2.686s-.396-1.968-1.113-2.685c-1.48-1.481-3.891-1.481-5.371 0-1.481 1.482-1.481 3.891-.001 5.371z"/><path d="m31.5 11.735h1v40.445h-1z"/><path d="m11.777 31.458h40.447v1h-40.447z"/><path d="m11.776 31.457h40.447v1h-40.447z" transform="matrix(.707 -.707 .707 .707 -13.224 31.987)"/><path d="m31.501 11.734h1v40.446h-1z" transform="matrix(.707 -.707 .707 .707 -13.224 31.988)"/></g><path d="m34.031 19.788h-4.061v24.34h4.061c6.721 0 12.17-5.449 12.17-12.17s-5.449-12.17-12.17-12.17z" fill="#52b8d9"/><path d="m34.031 44.627h-4.061c-.276 0-.5-.224-.5-.5v-24.34c0-.276.224-.5.5-.5h4.061c6.986 0 12.67 5.684 12.67 12.67s-5.683 12.67-12.67 12.67zm-3.56-1h3.561c6.435 0 11.67-5.235 11.67-11.67s-5.235-11.67-11.67-11.67h-3.561z" fill="#63312d"/><path d="m17.799 31.958c0 6.721 5.449 12.17 12.172 12.17 6.721 0 12.17-5.449 12.17-12.17s-5.449-12.17-12.17-12.17c-6.723 0-12.172 5.449-12.172 12.17z" fill="#84dbff"/><path d="m19.799 31.958c0-6.385 4.918-11.609 11.172-12.119-.332-.027-.664-.051-1-.051-6.723 0-12.172 5.449-12.172 12.17s5.449 12.17 12.172 12.17c.336 0 .668-.023 1-.051-6.254-.51-11.172-5.737-11.172-12.119z" fill="#caf4ff"/><path d="m29.971 44.627c-6.987 0-12.672-5.684-12.672-12.67s5.685-12.67 12.672-12.67c6.986 0 12.67 5.684 12.67 12.67s-5.684 12.67-12.67 12.67zm0-24.339c-6.436 0-11.672 5.235-11.672 11.67s5.236 11.67 11.672 11.67c6.435 0 11.67-5.235 11.67-11.67s-5.236-11.67-11.67-11.67z" fill="#63312d"/><path d="m33.957 28.822c0 2.205-1.785 3.988-3.988 3.988-2.199 0-3.986-1.783-3.986-3.988 0-2.2 1.787-3.984 3.986-3.984 2.203-.001 3.988 1.784 3.988 3.984z" fill="#f8f3f3"/><path d="m29.969 33.31c-2.474 0-4.486-2.014-4.486-4.488 0-2.473 2.013-4.484 4.486-4.484 2.475 0 4.488 2.012 4.488 4.484 0 2.474-2.014 4.488-4.488 4.488zm0-7.973c-1.923 0-3.486 1.563-3.486 3.484 0 1.923 1.563 3.488 3.486 3.488 1.924 0 3.488-1.565 3.488-3.488 0-1.921-1.564-3.484-3.488-3.484z" fill="#63312d"/><path d="m35.971 38.442c-.201-3.146-2.809-5.632-6.002-5.632-3.191 0-5.799 2.486-6 5.632z" fill="#f8f3f3"/><path d="m35.971 38.942h-12.002c-.138 0-.271-.057-.364-.158-.095-.101-.144-.236-.135-.374.219-3.421 3.073-6.1 6.499-6.1 3.427 0 6.282 2.679 6.501 6.1.009.138-.04.273-.135.374-.094.101-.227.158-.364.158zm-11.444-1h10.885c-.428-2.637-2.723-4.632-5.443-4.632s-5.014 1.995-5.442 4.632z" fill="#63312d"/><path d="m29.971 36.994c-.133 0-.26-.053-.354-.146l-2.926-2.928.707-.707 2.572 2.574 2.57-2.572.707.707-2.924 2.926c-.093.093-.219.146-.352.146z" fill="#63312d"/></svg>