<svg xmlns="http://www.w3.org/2000/svg" height="591pt" version="1.1" viewBox="0 -19 591.38 591" width="591pt">
<g id="surface1">
<path d="M 279.332031 377.164062 C 218.023438 406.183594 146.726562 405.148438 86.285156 374.363281 L 86.285156 401.308594 C 86.285156 401.308594 137.214844 426.746094 182.808594 426.746094 C 228.402344 426.746094 279.332031 404.167969 279.332031 404.167969 Z M 279.332031 377.164062 " style=" stroke:none;fill-rule:nonzero;fill:rgb(98.431373%,82.352941%,18.431373%);fill-opacity:1;" />
<path d="M 503.585938 378.890625 C 442.273438 407.90625 370.980469 406.871094 310.535156 376.089844 L 310.535156 403.035156 C 310.535156 403.035156 362.867188 426.910156 407.0625 426.910156 C 451.253906 426.910156 503.585938 405.835938 503.585938 405.835938 Z M 503.585938 378.890625 " style=" stroke:none;fill-rule:nonzero;fill:rgb(98.431373%,82.352941%,18.431373%);fill-opacity:1;" />
<path d="M 126.921875 7.832031 L 464.078125 7.832031 L 464.078125 251.324219 L 126.921875 251.324219 Z M 126.921875 7.832031 " style=" stroke:none;fill-rule:nonzero;fill:rgb(47.45098%,76.470588%,90.980392%);fill-opacity:1;" />
<path d="M 163.675781 39.035156 L 427.324219 39.035156 L 427.324219 220.066406 L 163.675781 220.066406 Z M 163.675781 39.035156 " style=" stroke:none;fill-rule:nonzero;fill:rgb(100%,100%,100%);fill-opacity:1;" />
<path d="M 424.089844 106.835938 C 374.5625 106.835938 390.566406 185.144531 349.070312 196.246094 C 307.570312 207.347656 295.175781 189.882812 245.269531 174.6875 C 195.367188 159.488281 166.910156 220.011719 166.910156 220.011719 L 427.324219 220.011719 Z M 424.089844 106.835938 " style=" stroke:none;fill-rule:nonzero;fill:rgb(95.686275%,88.235294%,56.470588%);fill-opacity:1;" />
<path d="M 54.808594 346.339844 L 86.121094 346.339844 L 86.121094 545.152344 L 54.808594 545.152344 Z M 54.808594 346.339844 " style=" stroke:none;fill-rule:nonzero;fill:rgb(75.686275%,75.686275%,75.686275%);fill-opacity:1;" />
<path d="M 100.726562 318.582031 C 100.726562 335.28125 87.191406 348.816406 70.492188 348.816406 C 53.796875 348.816406 40.257812 335.28125 40.257812 318.582031 C 40.257812 301.886719 53.796875 288.347656 70.492188 288.347656 C 87.191406 288.347656 100.726562 301.886719 100.726562 318.582031 Z M 100.726562 318.582031 " style=" stroke:none;fill-rule:nonzero;fill:rgb(75.686275%,75.686275%,75.686275%);fill-opacity:1;" />
<path d="M 279.222656 346.339844 L 310.535156 346.339844 L 310.535156 545.152344 L 279.222656 545.152344 Z M 279.222656 346.339844 " style=" stroke:none;fill-rule:nonzero;fill:rgb(75.686275%,75.686275%,75.686275%);fill-opacity:1;" />
<path d="M 325.140625 318.582031 C 325.140625 335.28125 311.601562 348.816406 294.90625 348.816406 C 278.210938 348.816406 264.671875 335.28125 264.671875 318.582031 C 264.671875 301.886719 278.210938 288.347656 294.90625 288.347656 C 311.601562 288.347656 325.140625 301.886719 325.140625 318.582031 Z M 325.140625 318.582031 " style=" stroke:none;fill-rule:nonzero;fill:rgb(75.686275%,75.686275%,75.686275%);fill-opacity:1;" />
<path d="M 504.878906 346.339844 L 536.1875 346.339844 L 536.1875 545.152344 L 504.878906 545.152344 Z M 504.878906 346.339844 " style=" stroke:none;fill-rule:nonzero;fill:rgb(75.686275%,75.686275%,75.686275%);fill-opacity:1;" />
<path d="M 550.792969 318.582031 C 550.792969 335.28125 537.257812 348.816406 520.558594 348.816406 C 503.863281 348.816406 490.324219 335.28125 490.324219 318.582031 C 490.324219 301.886719 503.863281 288.347656 520.558594 288.347656 C 537.257812 288.347656 550.792969 301.886719 550.792969 318.582031 Z M 550.792969 318.582031 " style=" stroke:none;fill-rule:nonzero;fill:rgb(75.686275%,75.686275%,75.686275%);fill-opacity:1;" />
<path d="M 342.441406 110.121094 C 342.441406 128.101562 327.867188 142.675781 309.890625 142.675781 C 291.910156 142.675781 277.335938 128.101562 277.335938 110.121094 C 277.335938 92.144531 291.910156 77.570312 309.890625 77.570312 C 327.867188 77.570312 342.441406 92.144531 342.441406 110.121094 Z M 342.441406 110.121094 " style=" stroke:none;fill-rule:nonzero;fill:rgb(98.431373%,82.352941%,18.431373%);fill-opacity:1;" />
<path d="M 471.894531 5.835938 C 471.910156 5.566406 471.910156 5.296875 471.894531 5.027344 L 471.570312 4.328125 L 471.191406 3.628906 L 470.707031 2.925781 L 470.707031 2.550781 L 469.414062 1.632812 L 468.824219 1.148438 L 467.960938 0.878906 L 467.3125 0.5 L 466.558594 0.179688 L 124.011719 0.179688 L 123.203125 0.5 L 122.554688 0.824219 L 121.855469 1.257812 L 121.261719 1.742188 L 120.667969 2.332031 L 120.667969 2.710938 L 120.183594 3.410156 L 119.808594 4.109375 L 119.484375 4.8125 C 119.46875 5.082031 119.46875 5.351562 119.484375 5.621094 C 119.484375 5.621094 119.484375 6.105469 119.484375 6.320312 C 119.46875 6.605469 119.46875 6.898438 119.484375 7.183594 C 119.484375 7.183594 119.484375 7.183594 119.484375 7.613281 L 119.484375 251.320312 C 119.484375 251.320312 119.484375 251.320312 119.484375 251.753906 C 119.46875 252.039062 119.46875 252.328125 119.484375 252.613281 C 119.484375 252.613281 119.484375 253.101562 119.484375 253.316406 C 119.46875 253.585938 119.46875 253.855469 119.484375 254.125 L 119.808594 254.824219 L 120.183594 255.523438 L 120.667969 256.226562 L 120.667969 256.605469 L 121.421875 257.304688 L 121.910156 257.734375 L 122.824219 258.273438 L 123.308594 258.542969 L 124.546875 258.972656 L 124.871094 258.972656 C 125.425781 259.03125 125.988281 259.03125 126.542969 258.972656 L 464.082031 258.972656 C 464.636719 259.03125 465.195312 259.03125 465.75 258.972656 L 466.074219 258.972656 L 467.316406 258.542969 L 467.800781 258.273438 L 468.714844 257.734375 L 469.199219 257.304688 L 469.953125 256.605469 L 469.953125 256.226562 L 470.441406 255.523438 L 470.816406 254.824219 L 471.140625 254.125 C 471.15625 253.855469 471.15625 253.585938 471.140625 253.316406 C 471.140625 253.316406 471.140625 252.832031 471.140625 252.613281 C 471.15625 252.328125 471.15625 252.039062 471.140625 251.753906 C 471.140625 251.753906 471.140625 251.753906 471.140625 251.320312 L 471.140625 7.832031 C 471.140625 7.832031 471.140625 7.832031 471.140625 7.402344 C 471.15625 7.117188 471.15625 6.824219 471.140625 6.539062 C 471.140625 6.539062 471.949219 6.054688 471.894531 5.835938 Z M 442.089844 15.914062 L 424.359375 30.953125 L 166.640625 30.953125 L 148.910156 15.914062 Z M 419.457031 99.019531 C 391.109375 101.714844 382 127.800781 374.617188 149.035156 C 368.308594 167.195312 362.382812 184.335938 347.183594 188.375 C 320.773438 195.652344 308.21875 190.261719 285.476562 180.9375 C 273.144531 175.679688 260.554688 171.054688 247.75 167.089844 C 214.066406 156.957031 187.710938 176.789062 171.542969 197.054688 L 171.542969 47.121094 L 419.453125 47.121094 L 419.453125 99.019531 Z M 242.898438 182.554688 C 255.257812 186.296875 267.421875 190.667969 279.332031 195.652344 C 302.722656 205.246094 319.644531 212.195312 351.117188 203.84375 C 374.617188 197.589844 382.59375 174.527344 389.707031 154.152344 C 397.46875 132.058594 403.289062 117.667969 419.457031 115.296875 L 419.457031 211.820312 L 180.976562 211.820312 C 191.160156 196.890625 212.558594 173.339844 242.898438 182.554688 Z M 135.113281 25.347656 L 155.375 42.808594 L 155.375 216.347656 L 134.789062 233.808594 Z M 148.910156 243.238281 L 166.640625 227.988281 L 424.359375 227.988281 L 442.089844 243.023438 Z M 456.101562 233.863281 L 435.625 216.347656 L 435.625 42.808594 L 456.210938 25.347656 Z M 456.101562 233.863281 " style=" stroke:none;fill-rule:nonzero;fill:rgb(11.372549%,12.941176%,15.686275%);fill-opacity:1;" />
<path d="M 8.082031 553.238281 L 582.914062 553.238281 C 587.378906 553.238281 591 549.617188 591 545.152344 C 591 540.691406 587.378906 537.070312 582.914062 537.070312 L 544.273438 537.070312 L 544.273438 348.441406 C 560.882812 335.328125 563.722656 311.234375 550.609375 294.621094 C 537.5 278.011719 513.402344 275.171875 496.792969 288.285156 C 480.183594 301.398438 477.34375 325.492188 490.453125 342.101562 C 492.316406 344.457031 494.4375 346.582031 496.792969 348.441406 L 496.792969 372.746094 C 439.96875 398.21875 374.824219 397.453125 318.621094 370.644531 L 318.621094 348.65625 C 335.230469 335.542969 338.070312 311.449219 324.957031 294.839844 C 311.84375 278.230469 287.75 275.386719 271.140625 288.5 C 254.527344 301.613281 251.6875 325.707031 264.800781 342.320312 C 266.660156 344.675781 268.785156 346.796875 271.140625 348.65625 L 271.140625 371.886719 C 214.605469 396.789062 150.023438 395.824219 94.257812 369.246094 L 94.257812 348.65625 C 110.871094 335.542969 113.710938 311.449219 100.597656 294.839844 C 87.484375 278.230469 63.390625 275.386719 46.777344 288.5 C 30.167969 301.613281 27.328125 325.707031 40.441406 342.320312 C 42.300781 344.675781 44.421875 346.796875 46.777344 348.65625 L 46.777344 537.285156 L 8.082031 537.285156 C 3.621094 537.285156 0 540.90625 0 545.371094 C 0 549.832031 3.621094 553.453125 8.082031 553.453125 Z M 94.3125 414.136719 C 150.542969 438.632812 214.25 439.527344 271.140625 416.617188 L 271.140625 537.121094 L 94.207031 537.121094 Z M 287.363281 537.070312 L 287.363281 356.203125 C 292.359375 357.207031 297.511719 357.207031 302.507812 356.203125 L 302.507812 537.070312 Z M 318.675781 415.699219 C 375.363281 440.410156 439.648438 441.09375 496.847656 417.585938 L 496.847656 537.070312 L 318.621094 537.070312 Z M 513.015625 537.070312 L 513.015625 356.203125 C 518.011719 357.207031 523.164062 357.207031 528.160156 356.203125 L 528.160156 537.070312 C 528.160156 537.070312 513.015625 537.070312 513.015625 537.070312 Z M 520.613281 296.433594 C 532.847656 296.433594 542.765625 306.347656 542.765625 318.582031 C 542.765625 330.816406 532.847656 340.734375 520.613281 340.734375 C 508.378906 340.734375 498.464844 330.816406 498.464844 318.582031 C 498.492188 306.402344 508.328125 296.519531 520.507812 296.433594 Z M 409.972656 407.722656 C 439.738281 407.738281 469.214844 401.914062 496.738281 390.585938 L 496.738281 399.964844 C 439.914062 425.433594 374.773438 424.667969 318.566406 397.863281 L 318.566406 388.699219 C 347.394531 401.277344 378.519531 407.757812 409.972656 407.722656 Z M 294.851562 296.433594 C 307.085938 296.433594 317.003906 306.347656 317.003906 318.582031 C 317.003906 330.816406 307.085938 340.734375 294.851562 340.734375 C 282.617188 340.734375 272.703125 330.816406 272.703125 318.582031 C 272.730469 306.359375 282.628906 296.460938 294.851562 296.433594 Z M 185.609375 406.160156 C 214.917969 406.21875 243.957031 400.621094 271.140625 389.667969 L 271.140625 399.046875 C 214.605469 423.949219 150.023438 422.984375 94.261719 396.40625 L 94.261719 387.246094 C 123.082031 399.78125 154.179688 406.21875 185.609375 406.160156 Z M 70.492188 296.433594 C 82.726562 296.433594 92.644531 306.347656 92.644531 318.582031 C 92.644531 330.816406 82.726562 340.734375 70.492188 340.734375 C 58.257812 340.734375 48.34375 330.816406 48.34375 318.582031 C 48.371094 306.359375 58.269531 296.460938 70.492188 296.433594 Z M 62.894531 356.203125 C 67.890625 357.207031 73.042969 357.207031 78.039062 356.203125 L 78.039062 537.070312 L 62.894531 537.070312 Z M 62.894531 356.203125 " style=" stroke:none;fill-rule:nonzero;fill:rgb(11.372549%,12.941176%,15.686275%);fill-opacity:1;" />
<path d="M 309.890625 150.8125 C 332.332031 150.8125 350.523438 132.617188 350.523438 110.175781 C 350.523438 87.734375 332.332031 69.539062 309.890625 69.539062 C 287.449219 69.539062 269.253906 87.734375 269.253906 110.175781 C 269.285156 132.605469 287.457031 150.78125 309.890625 150.8125 Z M 309.890625 85.707031 C 323.402344 85.707031 334.359375 96.664062 334.359375 110.175781 C 334.359375 123.6875 323.402344 134.644531 309.890625 134.644531 C 296.378906 134.644531 285.421875 123.6875 285.421875 110.175781 C 285.421875 96.65625 296.367188 85.6875 309.890625 85.65625 Z M 309.890625 85.707031 " style=" stroke:none;fill-rule:nonzero;fill:rgb(11.372549%,12.941176%,15.686275%);fill-opacity:1;" />
</g>
</svg>