<svg xmlns="http://www.w3.org/2000/svg" width="325.047" height="325.047" viewBox="0 0 325.047 325.047">
  <g id="page-divider" transform="translate(-440 -206)">
    <rect id="Rectangle_1" data-name="Rectangle 1" width="229.878" height="229.878" transform="matrix(0.719, -0.695, 0.695, 0.719, 440, 365.687)" fill="#ec5242"/>
    <path id="Icon_awesome-angle-down" data-name="Icon awesome-angle-down" d="M24.934,45.527,1.225,21.819a4.167,4.167,0,0,1,0-5.91l3.94-3.94a4.167,4.167,0,0,1,5.91,0l16.8,16.8,16.8-16.8a4.167,4.167,0,0,1,5.91,0l3.94,3.94a4.167,4.167,0,0,1,0,5.91L30.826,45.527A4.146,4.146,0,0,1,24.934,45.527Z" transform="translate(575.004 340.26)" fill="#fff"/>
  </g>
</svg>
