<svg id="Layer_1" enable-background="new 0 0 256 256" height="512" viewBox="0 0 256 256" width="512" xmlns="http://www.w3.org/2000/svg"><g><g><g><path d="m80 221 12.001-48h8.94l-15.971 48z" fill="#419b46"/></g><g><path d="m87.03 221 20.029-48h8.941l-23.999 48z" fill="#a4d4a0"/></g><g><path d="m100.941 173h6.118z" fill="#fff"/></g><g><path d="m84.97 221 15.971-48h6.118l-20.029 48z" fill="#65bc49"/></g></g><g><g><path d="m146 155h30v18h-30z" fill="#e8383b"/></g><g><path d="m80 155h30v18h-30z" fill="#ef7f72"/></g><g><path d="m110 155h36v18h-36z" fill="#e95947"/></g></g><g><g><path d="m86 148.169v-94.338c0-3.773 3.058-6.831 6.831-6.831h-44.831c-5.523 0-10 4.477-10 10v88c0 5.523 4.477 10 10 10h44.831c-3.773 0-6.831-3.058-6.831-6.831z" fill="#89aadb"/></g><g><path d="m208 47h-44.831c3.773 0 6.831 3.058 6.831 6.831v94.337c0 3.773-3.058 6.831-6.831 6.831h44.831c5.523 0 10-4.477 10-10v-87.999c0-5.523-4.477-10-10-10z" fill="#4b67b0"/></g><g><path d="m170 148.169v-94.338c0-3.773-3.058-6.831-6.831-6.831h-70.338c-3.773 0-6.831 3.058-6.831 6.831v94.337c0 3.773 3.058 6.831 6.831 6.831h70.337c3.774.001 6.832-3.057 6.832-6.83z" fill="#6287c5"/></g></g><g><g><path d="m208 158h-160c-7.168 0-13-5.832-13-13v-88c0-7.168 5.832-13 13-13h160c7.168 0 13 5.832 13 13v88c0 7.168-5.832 13-13 13zm-160-108c-3.86 0-7 3.14-7 7v88c0 3.86 3.14 7 7 7h160c3.859 0 7-3.14 7-7v-88c0-3.86-3.141-7-7-7z" fill="#1c2d6b"/></g></g><g><g><path d="m176 176h-96c-1.657 0-3-1.343-3-3v-18c0-1.657 1.343-3 3-3h96c1.657 0 3 1.343 3 3v18c0 1.657-1.343 3-3 3zm-93-6h90v-12h-90z" fill="#1c2d6b"/></g></g><g><g><path d="m92 224h-12c-.924 0-1.796-.426-2.365-1.154-.568-.728-.77-1.678-.546-2.574l12-48c.335-1.335 1.535-2.272 2.911-2.272h24c1.04 0 2.005.539 2.552 1.423s.597 1.989.131 2.919l-24 48c-.507 1.016-1.546 1.658-2.683 1.658zm-8.158-6h6.304l21-42h-16.803z" fill="#1c2d6b"/></g></g><g><g><path d="m176 221-12.001-48h-8.94l15.971 48z" fill="#419b46"/></g><g><path d="m168.97 221-20.029-48h-8.941l23.999 48z" fill="#a4d4a0"/></g><g><path d="m155.059 173h-6.118z" fill="#fff"/></g><g><path d="m171.03 221-15.971-48h-6.118l20.029 48z" fill="#65bc49"/></g></g><g><g><path d="m176 224h-12.001c-1.137 0-2.175-.642-2.684-1.658l-23.999-48c-.465-.93-.415-2.035.132-2.919s1.512-1.423 2.552-1.423h23.999c1.377 0 2.576.937 2.91 2.272l12.001 48c.225.896.023 1.846-.546 2.574-.568.728-1.44 1.154-2.364 1.154zm-10.146-6h6.304l-10.5-42h-16.803z" fill="#1c2d6b"/></g></g><g><g><g><g><path d="m92.817 107.191h62.755v5.029h-62.755z" fill="#d3ba2a" transform="matrix(.707 -.707 .707 .707 -41.198 119.951)"/></g><g><path d="m87.888 102.262h62.755v5.03h-62.755z" fill="#ede49d" transform="matrix(.707 -.707 .707 .707 -39.157 115.022)"/></g><g><path d="m98.856 128.743 1.373 1.372z" fill="#eee045"/></g><g><path d="m90.352 106.271h62.755v1.941h-62.755z" fill="#eee045" transform="matrix(.707 -.707 .707 .707 -40.178 117.486)"/></g></g><g><g><path d="m103.785 136.671c-.795 0-1.559-.316-2.121-.879l-8.485-8.485c-1.172-1.171-1.172-3.071 0-4.242l44.374-44.374c1.172-1.172 3.07-1.171 4.242 0l8.485 8.485c.562.563.879 1.326.879 2.122 0 .795-.316 1.559-.879 2.121l-44.374 44.375c-.562.561-1.325.877-2.121.877zm-4.243-11.485 4.243 4.243 40.131-40.132-4.242-4.242z" fill="#1c2d6b"/></g></g><g><g><path d="m163.757 63.841c.379-.379.994-.379 1.372 0-2.343-2.343-6.142-2.343-8.485 0l-4.243 4.243 3.556 3.556z" fill="#ede49d"/></g><g><path d="m165.13 63.841c.379.379.379.994 0 1.372l-7.799 7.799 3.556 3.556 4.243-4.243c2.343-2.342 2.343-6.141 0-8.484z" fill="#d3ba2a"/></g><g><path d="m165.13 63.841c-.379-.379-.993-.379-1.372 0l-7.799 7.799 1.372 1.373 7.799-7.799c.379-.379.379-.994 0-1.373z" fill="#eee045"/></g></g><g><g><path d="m160.888 79.569c-.796 0-1.559-.316-2.121-.879l-8.485-8.485c-1.172-1.171-1.172-3.071 0-4.242l4.242-4.243c1.7-1.7 3.96-2.636 6.364-2.636s4.664.936 6.363 2.636c3.509 3.509 3.509 9.219 0 12.728l-4.242 4.243c-.563.562-1.325.878-2.121.878zm-4.243-11.485 4.243 4.243 2.121-2.121c1.169-1.17 1.169-3.073 0-4.243-1.133-1.134-3.108-1.132-4.243 0z" fill="#1c2d6b"/></g></g><g><g><path d="m143.323 77.389 5.657-5.657c1.953-1.953 4.096-2.975 4.787-2.284l-7.918-7.918c-1.953-1.953-5.118-1.953-7.071 0l-5.657 5.657c-1.953 1.953-1.953 5.118 0 7.071l7.918 7.918c-.692-.691.331-2.834 2.284-4.787z" fill="#ef7f72"/></g><g><path d="m168.947 91.7-.943-6.6c-.153-1.071-.649-2.063-1.414-2.828l-5.482-5.482c.271.271.286.782.044 1.458l-1.494 4.163c-.747 2.082-3.575 4.91-5.657 5.657l-4.163 1.494c-.676.242-1.187.227-1.458-.044l5.482 5.482c.765.765 1.757 1.261 2.828 1.414l6.6.943c3.3.471 6.129-2.357 5.657-5.657z" fill="#e8383b"/></g><g><path d="m161.109 76.79-7.343-7.342z" fill="#e95947"/></g><g><path d="m149.839 89.562 4.163-1.494c2.082-.747 4.91-3.575 5.657-5.657l1.494-4.163c.242-.676.227-1.187-.044-1.458l-7.342-7.342c-.691-.691-2.834.331-4.787 2.284l-5.657 5.657c-1.953 1.953-2.975 4.096-2.284 4.787l7.342 7.342c.27.271.782.286 1.458.044z" fill="#e95947"/></g></g><g><g><path d="m164.022 100.41c-.383 0-.77-.027-1.157-.083l-6.599-.943c-1.703-.243-3.311-1.047-4.526-2.263l-20.741-20.741c-3.119-3.12-3.119-8.195-.001-11.314l5.658-5.657c3.118-3.118 8.193-3.119 11.313 0l20.741 20.742c1.216 1.215 2.02 2.822 2.264 4.525l.942 6.6c.359 2.516-.465 4.991-2.263 6.788-1.519 1.521-3.525 2.346-5.631 2.346zm-21.71-37.343c-.512 0-1.024.195-1.414.585l-5.657 5.657c-.779.779-.779 2.049.001 2.829l20.741 20.741c.304.304.705.505 1.131.566l6.6.943c.636.089 1.248-.117 1.698-.566.449-.449.655-1.068.565-1.697l-.942-6.6c-.061-.425-.262-.827-.566-1.131l-20.741-20.743c-.391-.389-.903-.584-1.416-.584z" fill="#1c2d6b"/></g></g></g><g><g><g><path d="m119.479 61.579h6.685v72h-6.685z" fill="#419b46" transform="matrix(.707 -.707 .707 .707 -33.025 115.428)"/></g><g><path d="m111.478 69.579h6.685v72h-6.685z" fill="#a4d4a0" transform="matrix(.707 -.707 .707 .707 -41.026 112.114)"/></g><g><path d="m116.506 65.579h4.63v72h-4.63z" fill="#65bc49" transform="matrix(.707 -.707 .707 .707 -37.025 113.771)"/></g></g><g><g><path d="m137.913 136.399c-.796 0-1.559-.316-2.121-.879l-50.912-50.912c-.563-.562-.879-1.325-.879-2.121 0-.795.316-1.559.879-2.121l12.728-12.728c1.171-1.172 3.071-1.172 4.242 0l50.912 50.912c1.172 1.171 1.172 3.071 0 4.242l-12.728 12.728c-.562.563-1.325.879-2.121.879zm-46.669-53.912 46.669 46.669 8.485-8.485-46.669-46.669z" fill="#1c2d6b"/></g></g><g><g><path d="m103.972 85.487c-.768 0-1.536-.293-2.121-.879-1.172-1.171-1.172-3.071 0-4.242l4.243-4.243c1.171-1.172 3.071-1.172 4.242 0 1.172 1.171 1.172 3.071 0 4.242l-4.243 4.243c-.586.586-1.354.879-2.121.879z" fill="#1c2d6b"/></g></g><g><g><path d="m112.457 93.972c-.768 0-1.536-.293-2.121-.879-1.172-1.171-1.172-3.071 0-4.242l4.243-4.243c1.171-1.172 3.071-1.172 4.242 0 1.172 1.171 1.172 3.071 0 4.242l-4.243 4.243c-.585.586-1.353.879-2.121.879z" fill="#1c2d6b"/></g></g><g><g><path d="m120.942 102.458c-.768 0-1.536-.293-2.121-.879-1.172-1.171-1.172-3.071 0-4.242l4.243-4.243c1.171-1.172 3.071-1.172 4.242 0 1.172 1.171 1.172 3.071 0 4.242l-4.243 4.243c-.585.586-1.353.879-2.121.879z" fill="#1c2d6b"/></g></g><g><g><path d="m129.428 110.943c-.768 0-1.535-.293-2.121-.878-1.172-1.172-1.172-3.071 0-4.243l4.243-4.243c1.17-1.172 3.07-1.171 4.242 0 1.172 1.172 1.172 3.071 0 4.243l-4.242 4.243c-.586.585-1.355.878-2.122.878z" fill="#1c2d6b"/></g></g><g><g><path d="m137.913 119.428c-.768 0-1.535-.293-2.121-.878-1.172-1.172-1.172-3.071 0-4.243l4.242-4.243c1.17-1.172 3.07-1.171 4.242 0 1.172 1.172 1.172 3.071 0 4.243l-4.242 4.243c-.585.585-1.353.878-2.121.878z" fill="#1c2d6b"/></g></g></g></g><g><g><path d="m146 35h30v12h-30z" fill="#e8383b"/></g><g><path d="m80 35h30v12h-30z" fill="#ef7f72"/></g><g><path d="m110 35h36v12h-36z" fill="#e95947"/></g></g><g><g><path d="m176 50h-96c-1.657 0-3-1.343-3-3v-12c0-1.657 1.343-3 3-3h96c1.657 0 3 1.343 3 3v12c0 1.657-1.343 3-3 3zm-93-6h90v-6h-90z" fill="#1c2d6b"/></g></g></g></svg>